<mxfile host="app.diagrams.net" modified="2023-10-09T13:20:27.162Z" agent="Mozilla/5.0 (Windows NT 10.0; Win64; x64) AppleWebKit/537.36 (KHTML, like Gecko) Chrome/117.0.0.0 Safari/537.36" etag="sCCibLKV-M4pdjgQ1Asr" version="22.0.4" type="device">
  <diagram name="Página-1" id="exVDYf53RNWQqqmtuRy9">
    <mxGraphModel dx="880" dy="514" grid="1" gridSize="10" guides="1" tooltips="1" connect="1" arrows="1" fold="1" page="1" pageScale="1" pageWidth="827" pageHeight="1169" math="0" shadow="0">
      <root>
        <mxCell id="0" />
        <mxCell id="1" parent="0" />
        <mxCell id="pfv2CzaE6KlKxBksikYN-3" value="&lt;font color=&quot;#ffffff&quot; style=&quot;font-size: 21px;&quot;&gt;iPhone&lt;/font&gt;" style="text;align=center;html=1;verticalAlign=middle;whiteSpace=wrap;rounded=0;labelBackgroundColor=none;fontColor=#FFFFFF;" parent="1" vertex="1">
          <mxGeometry x="392.5" y="166.25" width="55" height="27.5" as="geometry" />
        </mxCell>
        <mxCell id="pfv2CzaE6KlKxBksikYN-6" value="&lt;span style=&quot;font-size: 21px;&quot;&gt;&lt;font color=&quot;#ffffff&quot;&gt;iPod&lt;/font&gt;&lt;/span&gt;" style="text;strokeColor=none;align=center;fillColor=none;html=1;verticalAlign=middle;whiteSpace=wrap;rounded=0;labelBackgroundColor=none;fontColor=#FFFFFF;" parent="1" vertex="1">
          <mxGeometry x="232.5" y="326.25" width="55" height="27.5" as="geometry" />
        </mxCell>
        <mxCell id="pfv2CzaE6KlKxBksikYN-7" value="&lt;span style=&quot;font-size: 21px;&quot;&gt;&lt;font color=&quot;#ffffff&quot;&gt;Internet&lt;/font&gt;&lt;/span&gt;" style="text;strokeColor=none;align=center;fillColor=none;html=1;verticalAlign=middle;whiteSpace=wrap;rounded=0;labelBackgroundColor=none;fontColor=#FFFFFF;" parent="1" vertex="1">
          <mxGeometry x="552.5" y="326.25" width="55" height="27.5" as="geometry" />
        </mxCell>
        <mxCell id="Rz1IcOJcdNoJ4zdx8GWA-5" value="" style="edgeStyle=none;rounded=0;orthogonalLoop=1;jettySize=auto;html=1;" edge="1" parent="1" source="Rz1IcOJcdNoJ4zdx8GWA-1" target="Rz1IcOJcdNoJ4zdx8GWA-3">
          <mxGeometry relative="1" as="geometry" />
        </mxCell>
        <mxCell id="Rz1IcOJcdNoJ4zdx8GWA-6" style="edgeStyle=none;rounded=0;orthogonalLoop=1;jettySize=auto;html=1;entryX=0.5;entryY=1;entryDx=0;entryDy=0;" edge="1" parent="1" source="Rz1IcOJcdNoJ4zdx8GWA-1" target="Rz1IcOJcdNoJ4zdx8GWA-2">
          <mxGeometry relative="1" as="geometry">
            <Array as="points">
              <mxPoint x="180" y="445" />
            </Array>
          </mxGeometry>
        </mxCell>
        <mxCell id="Rz1IcOJcdNoJ4zdx8GWA-7" style="edgeStyle=none;rounded=0;orthogonalLoop=1;jettySize=auto;html=1;entryX=0.5;entryY=1;entryDx=0;entryDy=0;" edge="1" parent="1" source="Rz1IcOJcdNoJ4zdx8GWA-1" target="Rz1IcOJcdNoJ4zdx8GWA-4">
          <mxGeometry relative="1" as="geometry">
            <Array as="points">
              <mxPoint x="660" y="445" />
            </Array>
          </mxGeometry>
        </mxCell>
        <mxCell id="Rz1IcOJcdNoJ4zdx8GWA-1" value="&lt;font style=&quot;font-size: 23px;&quot;&gt;iPhone&lt;/font&gt;" style="html=1;whiteSpace=wrap;fillColor=#0050ef;strokeColor=#001DBC;rounded=1;fontColor=#ffffff;" vertex="1" parent="1">
          <mxGeometry x="320" y="400" width="200" height="90" as="geometry" />
        </mxCell>
        <mxCell id="Rz1IcOJcdNoJ4zdx8GWA-2" value="&lt;p style=&quot;margin:0px;margin-top:4px;text-align:center;&quot;&gt;&lt;i&gt;&amp;lt;&amp;lt;Interface&amp;gt;&amp;gt;&lt;/i&gt;&lt;br&gt;&lt;/p&gt;&lt;div style=&quot;text-align: center;&quot;&gt;&lt;span style=&quot;background-color: initial;&quot;&gt;&lt;b&gt;Reprodutor Musical&lt;/b&gt;&lt;/span&gt;&lt;/div&gt;&lt;hr size=&quot;1&quot;&gt;&lt;p style=&quot;margin:0px;margin-left:4px;&quot;&gt;&lt;/p&gt;&lt;p style=&quot;margin:0px;margin-left:4px;&quot;&gt;+ adicionarMusica(): void&lt;br&gt;+ tocarMusica(): void&lt;/p&gt;" style="verticalAlign=top;align=left;overflow=fill;fontSize=12;fontFamily=Helvetica;html=1;whiteSpace=wrap;rounded=1;" vertex="1" parent="1">
          <mxGeometry x="80" y="240" width="200" height="80" as="geometry" />
        </mxCell>
        <mxCell id="Rz1IcOJcdNoJ4zdx8GWA-3" value="&lt;p style=&quot;margin:0px;margin-top:4px;text-align:center;&quot;&gt;&lt;i&gt;&amp;lt;&amp;lt;Interface&amp;gt;&amp;gt;&lt;/i&gt;&lt;br&gt;&lt;/p&gt;&lt;div style=&quot;text-align: center;&quot;&gt;&lt;/div&gt;&lt;p style=&quot;margin:0px;margin-left:4px;&quot;&gt;&lt;/p&gt;&lt;div style=&quot;text-align: center;&quot;&gt;&lt;span style=&quot;background-color: initial;&quot;&gt;&lt;b&gt;Aparelho Telefônico&lt;/b&gt;&lt;/span&gt;&lt;/div&gt;&lt;p style=&quot;margin:0px;margin-left:4px;&quot;&gt;+ fazerLigacao(): void&lt;br&gt;+ receberLigacao(): String&lt;/p&gt;&lt;p style=&quot;margin:0px;margin-left:4px;&quot;&gt;+ atender(): void&lt;br&gt;&lt;/p&gt;" style="verticalAlign=top;align=left;overflow=fill;fontSize=12;fontFamily=Helvetica;html=1;whiteSpace=wrap;rounded=1;" vertex="1" parent="1">
          <mxGeometry x="320" y="240" width="200" height="80" as="geometry" />
        </mxCell>
        <mxCell id="Rz1IcOJcdNoJ4zdx8GWA-4" value="&lt;p style=&quot;margin:0px;margin-top:4px;text-align:center;&quot;&gt;&lt;i&gt;&amp;lt;&amp;lt;Interface&amp;gt;&amp;gt;&lt;/i&gt;&lt;br&gt;&lt;/p&gt;&lt;div style=&quot;text-align: center;&quot;&gt;&lt;/div&gt;&lt;p style=&quot;margin:0px;margin-left:4px;&quot;&gt;&lt;/p&gt;&lt;div style=&quot;text-align: center;&quot;&gt;&lt;span style=&quot;background-color: initial;&quot;&gt;&lt;b&gt;Navegador na Internet&lt;/b&gt;&lt;/span&gt;&lt;/div&gt;&lt;p style=&quot;margin:0px;margin-left:4px;&quot;&gt;&lt;br&gt;&lt;/p&gt;&lt;p style=&quot;margin:0px;margin-left:4px;&quot;&gt;+ pesquisar(): String&lt;br&gt;&lt;/p&gt;" style="verticalAlign=top;align=left;overflow=fill;fontSize=12;fontFamily=Helvetica;html=1;whiteSpace=wrap;rounded=1;" vertex="1" parent="1">
          <mxGeometry x="560" y="240" width="200" height="80" as="geometry" />
        </mxCell>
      </root>
    </mxGraphModel>
  </diagram>
</mxfile>
